#N canvas 748 34 748 905 12;
#X obj 72 73 oscparse;
#X obj 72 134 route control1 control2;
#X obj 73 229 route value function switch;
#X obj 197 263 tgl 15 0 empty empty empty 17 7 0 10 #fcfcfc #000000
#000000 0 1;
#X obj 72 105 list trim;
#X obj 71 41 netreceive -u -b 8888;
#X obj 287 107 hsl 128 15 0 127 0 0 empty empty empty -2 -8 0 10 #fcfcfc
#000000 #000000 0 1;
#X obj 285 135 / 127;
#X obj 75 369 / 1024;
#X obj 134 262 / 1024;
#X obj 134 309 * 5;
#X obj 133 367 change;
#X obj 133 338 int;
#X floatatom 31 409 5 0 0 0 - - - 0;
#X floatatom 29 449 5 0 0 0 - - - 0;
#N canvas 0 34 748 905 squiggle 0;
#X obj 45 256 expr~ $v1 < 0.5;
#X obj 153 498 delwrite~ \$0-d1 500;
#X obj 190 232 osc~ 1;
#X obj 44 222 phasor~;
#X obj 106 562 *~;
#X obj 306 471 tgl 15 0 empty empty empty 17 7 0 10 #fcfcfc #000000
#000000 0 1;
#X obj 189 86 expr cos($f1 * 4 * 3.14159265) * 0.5 + 0.5;
#X obj 43 128 mtof;
#X obj 44 99 expr $f1 * 2 + 38;
#X obj 153 421 *~ 0.6;
#X obj 153 389 delread~ \$0-d1 200;
#X obj 256 299 expr $f1 * 10 + 5;
#X obj 153 453 lop~ 1500;
#X obj 306 529 line~;
#X obj 190 297 mtof~;
#X obj 45 345 vcf~ 100 1;
#X obj 189 119 expr $f1 * 2 + 0.02;
#X obj 190 264 expr~ $v1 * 15 + 70;
#X obj 44 34 inlet;
#X text 510 208 patch for Squiggle sound;
#X obj 397 425 inlet;
#X obj 429 616 switch~;
#X obj 397 473 sel 0;
#X obj 397 550 del 100;
#X msg 398 577 0;
#X obj 42 190 line~;
#X obj 42 157 pack f 10;
#X obj 188 190 line~;
#X obj 188 157 pack f 10;
#X obj 46 293 *~ 0.7;
#X obj 305 497 pack f 100;
#X msg 443 510 stop;
#X obj 107 639 outlet~;
#X connect 0 0 29 0;
#X connect 2 0 17 0;
#X connect 3 0 0 0;
#X connect 4 0 32 0;
#X connect 5 0 30 0;
#X connect 6 0 16 0;
#X connect 6 0 11 0;
#X connect 7 0 26 0;
#X connect 8 0 7 0;
#X connect 9 0 12 0;
#X connect 10 0 4 0;
#X connect 10 0 9 0;
#X connect 11 0 15 2;
#X connect 12 0 1 0;
#X connect 13 0 4 1;
#X connect 14 0 15 1;
#X connect 15 1 4 0;
#X connect 15 1 1 0;
#X connect 16 0 28 0;
#X connect 17 0 14 0;
#X connect 18 0 6 0;
#X connect 18 0 8 0;
#X connect 20 0 22 0;
#X connect 20 0 5 0;
#X connect 22 0 23 0;
#X connect 22 1 21 0;
#X connect 22 1 31 0;
#X connect 23 0 24 0;
#X connect 24 0 21 0;
#X connect 25 0 3 0;
#X connect 26 0 25 0;
#X connect 27 0 2 0;
#X connect 28 0 27 0;
#X connect 29 0 15 0;
#X connect 30 0 13 0;
#X connect 31 0 23 0;
#X restore 75 498 pd squiggle;
#X obj 148 467 == 0;
#X obj 290 229 hsl 128 15 0 127 0 0 empty empty empty -2 -8 0 10 #fcfcfc
#000000 #000000 0 1;
#X obj 287 253 / 26;
#N canvas 0 34 748 905 mosaic 0;
#X obj 65 288 phasor~;
#X obj 65 259 mtof;
#X obj 67 388 *~;
#X obj 65 318 expr~ abs($v1-0.5)*4-1;
#X obj 66 351 *~ 0.7;
#X floatatom 65 227 5 0 0 0 - - - 0;
#X obj 150 539 delwrite~ \$0-d2 500;
#X obj 150 429 delread~ \$0-d2 316;
#X obj 150 461 *~ 0.7;
#X obj 150 493 lop~ 2500;
#X obj 265 368 *~;
#X obj 64 565 *~;
#X obj 232 165 metro 231;
#X obj 233 131 tgl 15 0 empty empty empty 17 7 0 10 #fcfcfc #000000
#000000 0 1;
#X obj 323 131 expr (1-$f1) * 50 + 231;
#X obj 340 172 expr (cos($f1 * 4 * 3.14159265) * 0.5 + 0.5) * 400 +
50;
#X floatatom 364 87 5 0 0 0 - - - 0;
#X floatatom 340 206 5 0 0 0 - - - 0;
#X msg 264 232 1 1;
#X obj 236 290 pack 0 f;
#X obj 265 327 line~;
#X obj 235 261 delay 2;
#X obj 371 268 i;
#X obj 371 299 + 1;
#X obj 233 200 t b b b;
#X obj 371 331 expr ($f1 % 8) / 8;
#X obj 371 366 expr cos($f2 * 3.1416 * 2 * 5 + 0.5 + $f1);
#X obj 371 402 expr int($f1 * 12.5 + 12.5);
#X obj 371 435 + 48;
#X obj 365 48 inlet;
#X obj 327 541 tgl 15 0 empty empty empty 17 7 0 10 #fcfcfc #000000
#000000 0 1;
#X obj 328 601 line~;
#X obj 419 497 inlet;
#X obj 452 729 switch~;
#X obj 419 545 sel 0;
#X obj 419 622 del 100;
#X msg 420 649 0;
#X obj 327 569 pack f 100;
#X msg 465 582 stop;
#X obj 452 694 t i i;
#X text 461 48 Mosaic sounddesign;
#X obj 65 625 outlet~;
#X connect 0 0 3 0;
#X connect 1 0 0 0;
#X connect 2 0 6 0;
#X connect 2 0 11 0;
#X connect 3 0 4 0;
#X connect 4 0 2 0;
#X connect 5 0 1 0;
#X connect 7 0 8 0;
#X connect 8 0 9 0;
#X connect 9 0 6 0;
#X connect 9 0 11 0;
#X connect 10 0 2 1;
#X connect 11 0 41 0;
#X connect 12 0 24 0;
#X connect 13 0 12 0;
#X connect 14 0 12 1;
#X connect 15 0 17 0;
#X connect 16 0 14 0;
#X connect 16 0 15 0;
#X connect 16 0 26 1;
#X connect 17 0 19 1;
#X connect 18 0 20 0;
#X connect 19 0 20 0;
#X connect 20 0 10 1;
#X connect 20 0 10 0;
#X connect 21 0 19 0;
#X connect 22 0 23 0;
#X connect 23 0 22 1;
#X connect 23 0 25 0;
#X connect 24 0 21 0;
#X connect 24 1 18 0;
#X connect 24 2 22 0;
#X connect 25 0 26 0;
#X connect 26 0 27 0;
#X connect 27 0 28 0;
#X connect 28 0 5 0;
#X connect 29 0 16 0;
#X connect 30 0 37 0;
#X connect 31 0 11 1;
#X connect 32 0 34 0;
#X connect 32 0 30 0;
#X connect 34 0 35 0;
#X connect 34 1 38 0;
#X connect 34 1 39 0;
#X connect 35 0 36 0;
#X connect 36 0 39 0;
#X connect 37 0 31 0;
#X connect 38 0 35 0;
#X connect 39 0 33 0;
#X connect 39 1 13 0;
#X restore 185 500 pd mosaic;
#X obj 245 467 == 1;
#N canvas 0 34 748 905 smear 0;
#X obj 58 221 noise~;
#X obj 139 258 osc~ 1;
#X obj 59 408 lop~;
#X obj 137 124 expr cos($f1 * 3.1415 * 8) * -0.5 + 0.5;
#X obj 137 161 expr $f1 * 10 + 0.5;
#X obj 138 194 pack f 50;
#X obj 139 225 line~;
#X obj 58 350 *~;
#X obj 191 323 expr $f1 * 55 + 70;
#X obj 192 353 mtof;
#X obj 57 257 lop~ 1500;
#X obj 60 478 *~;
#X obj 134 50 inlet;
#X text 226 50 Sound design for Smear Visuals;
#X obj 135 448 tgl 15 0 empty empty empty 17 7 0 10 #fcfcfc #000000
#000000 0 1;
#X obj 136 508 line~;
#X obj 227 404 inlet;
#X obj 260 636 switch~;
#X obj 227 452 sel 0;
#X obj 227 529 del 100;
#X msg 228 556 0;
#X obj 135 476 pack f 100;
#X msg 273 489 stop;
#X obj 260 601 t i i;
#X obj 140 290 expr~ ($v1 * 0.5 + 0.5) * 0.5;
#X obj 59 535 outlet~;
#X connect 0 0 10 0;
#X connect 1 0 24 0;
#X connect 2 0 11 0;
#X connect 3 0 4 0;
#X connect 3 0 8 0;
#X connect 4 0 5 0;
#X connect 5 0 6 0;
#X connect 6 0 1 0;
#X connect 7 0 2 0;
#X connect 8 0 9 0;
#X connect 9 0 2 1;
#X connect 10 0 7 0;
#X connect 11 0 25 0;
#X connect 12 0 3 0;
#X connect 14 0 21 0;
#X connect 15 0 11 1;
#X connect 16 0 18 0;
#X connect 16 0 14 0;
#X connect 18 0 19 0;
#X connect 18 1 22 0;
#X connect 18 1 23 0;
#X connect 19 0 20 0;
#X connect 20 0 23 0;
#X connect 21 0 15 0;
#X connect 22 0 19 0;
#X connect 23 0 17 0;
#X connect 24 0 7 1;
#X restore 289 503 pd smear;
#X obj 342 466 == 2;
#X obj 76 670 dac~ 1 2;
#N canvas 519 260 308 453 squash 0;
#X obj 53 37 inlet~;
#X obj 160 36 inlet;
#X obj 52 94 *~;
#X obj 103 159 *~;
#X obj 103 195 *~ 0.28;
#X obj 102 229 +~ 1;
#X obj 53 276 /~;
#X obj 54 323 /~;
#X obj 163 276 sqrt;
#X obj 54 370 outlet~;
#X connect 0 0 2 0;
#X connect 1 0 2 1;
#X connect 1 0 8 0;
#X connect 2 0 3 0;
#X connect 2 0 3 1;
#X connect 2 0 6 0;
#X connect 3 0 4 0;
#X connect 4 0 5 0;
#X connect 5 0 6 1;
#X connect 6 0 7 0;
#X connect 7 0 9 0;
#X connect 8 0 7 1;
#X restore 74 583 pd squash;
#X msg 168 610 1.5;
#X obj 169 582 loadbang;
#X obj 286 163 * 1024;
#N canvas 748 34 748 905 glass 0;
#X obj 67 360 phasor~;
#X obj 67 331 mtof;
#X obj 69 505 *~;
#X obj 67 390 expr~ abs($v1-0.5)*4-1;
#X floatatom 67 299 5 0 0 0 - - - 0;
#X obj 370 427 *~;
#X obj 66 637 *~;
#X obj 337 224 metro 231;
#X obj 337 189 tgl 15 0 empty empty empty 17 7 0 10 #fcfcfc #000000
#000000 0 1;
#X msg 369 291 1 1;
#X obj 370 386 line~;
#X obj 340 320 delay 2;
#X obj 496 323 i;
#X obj 496 354 + 1;
#X obj 338 259 t b b b;
#X obj 496 386 expr ($f1 % 8) / 8;
#X obj 496 421 expr cos($f2 * 3.1416 * 2 * 5 + 0.5 + $f1);
#X obj 496 457 expr int($f1 * 12.5 + 12.5);
#X obj 496 490 + 48;
#X obj 205 77 inlet;
#X obj 315 614 tgl 15 0 empty empty empty 17 7 0 10 #fcfcfc #000000
#000000 0 1;
#X obj 316 674 line~;
#X obj 406 579 inlet;
#X obj 440 802 switch~;
#X obj 407 618 sel 0;
#X obj 407 695 del 100;
#X msg 408 722 0;
#X obj 315 642 pack f 100;
#X msg 453 655 stop;
#X obj 440 767 t i i;
#X obj 67 697 outlet~;
#X text 447 80 Sound design for Glass visual;
#X obj 146 568 lop~ 2000;
#X obj 150 293 phasor~;
#X obj 150 264 mtof;
#X obj 150 326 expr~ abs($v1-0.5)*1.4;
#X obj 68 423 *~;
#X obj 69 462 lop~;
#X obj 446 130 expr sin($f1 * 3.1415 * 9) * 0.5 + 0.5;
#X msg 340 347 0 400;
#X obj 448 171 expr $f1 * 30 + 60;
#X obj 448 204 mtof;
#X obj 498 205 expr $f1 * 0.3 + 0.3;
#X obj 497 266 line~;
#X obj 146 536 *~;
#X obj 498 237 pack f 50;
#X obj 568 269 expr (1-$f1) * 500 + 100;
#X obj 205 118 * 2;
#X obj 146 504 delread~ \$0-d3 312;
#X obj 146 611 delwrite~ \$0-d3 500;
#X obj 206 151 + 0.5;
#X obj 148 224 *;
#X connect 0 0 3 0;
#X connect 1 0 0 0;
#X connect 2 0 6 0;
#X connect 2 0 49 0;
#X connect 3 0 36 0;
#X connect 4 0 1 0;
#X connect 5 0 2 1;
#X connect 6 0 30 0;
#X connect 7 0 14 0;
#X connect 8 0 7 0;
#X connect 9 0 10 0;
#X connect 10 0 5 1;
#X connect 10 0 5 0;
#X connect 11 0 39 0;
#X connect 12 0 13 0;
#X connect 13 0 12 1;
#X connect 13 0 15 0;
#X connect 14 0 11 0;
#X connect 14 1 9 0;
#X connect 14 2 12 0;
#X connect 15 0 16 0;
#X connect 16 0 17 0;
#X connect 17 0 18 0;
#X connect 18 0 4 0;
#X connect 18 0 51 0;
#X connect 19 0 38 0;
#X connect 19 0 47 0;
#X connect 20 0 27 0;
#X connect 21 0 6 1;
#X connect 22 0 24 0;
#X connect 22 0 20 0;
#X connect 24 0 25 0;
#X connect 24 1 28 0;
#X connect 24 1 29 0;
#X connect 25 0 26 0;
#X connect 26 0 29 0;
#X connect 27 0 21 0;
#X connect 28 0 25 0;
#X connect 29 0 23 0;
#X connect 29 1 8 0;
#X connect 32 0 6 0;
#X connect 32 0 49 0;
#X connect 33 0 35 0;
#X connect 34 0 33 0;
#X connect 35 0 36 1;
#X connect 36 0 37 0;
#X connect 37 0 2 0;
#X connect 38 0 40 0;
#X connect 38 0 42 0;
#X connect 38 0 46 0;
#X connect 38 0 16 1;
#X connect 39 0 10 0;
#X connect 40 0 41 0;
#X connect 41 0 37 1;
#X connect 42 0 45 0;
#X connect 43 0 44 1;
#X connect 44 0 32 0;
#X connect 45 0 43 0;
#X connect 46 0 7 1;
#X connect 47 0 50 0;
#X connect 48 0 44 0;
#X connect 50 0 51 1;
#X connect 51 0 34 0;
#X restore 374 506 pd glass;
#X obj 423 467 == 3;
#N canvas 0 34 748 905 paint 0;
#X obj 82 54 inlet;
#X obj 136 614 outlet~;
#X obj 379 54 inlet;
#X obj 82 134 noise~;
#X obj 83 171 lop~ 2000;
#X floatatom 187 187 5 0 0 0 - - - 0;
#X floatatom 229 225 5 0 0 0 - - - 0;
#X obj 84 306 vcf~ 100 10;
#X connect 3 0 4 0;
#X connect 4 0 7 0;
#X connect 5 0 7 1;
#X connect 6 0 7 2;
#X connect 7 1 1 0;
#X restore 464 509 pd paint;
#X obj 515 468 == 4;
#X connect 0 0 4 0;
#X connect 1 0 2 0;
#X connect 2 0 8 0;
#X connect 2 1 9 0;
#X connect 2 2 3 0;
#X connect 4 0 1 0;
#X connect 5 0 0 0;
#X connect 6 0 7 0;
#X connect 7 0 27 0;
#X connect 8 0 13 0;
#X connect 8 0 15 0;
#X connect 8 0 19 0;
#X connect 8 0 21 0;
#X connect 8 0 28 0;
#X connect 8 0 30 0;
#X connect 9 0 10 0;
#X connect 10 0 12 0;
#X connect 11 0 14 0;
#X connect 11 0 16 0;
#X connect 11 0 20 0;
#X connect 11 0 22 0;
#X connect 11 0 29 0;
#X connect 11 0 31 0;
#X connect 12 0 11 0;
#X connect 15 0 24 0;
#X connect 16 0 15 1;
#X connect 17 0 18 0;
#X connect 18 0 12 0;
#X connect 19 0 24 0;
#X connect 20 0 19 1;
#X connect 21 0 24 0;
#X connect 22 0 21 1;
#X connect 24 0 23 1;
#X connect 24 0 23 0;
#X connect 25 0 24 1;
#X connect 26 0 25 0;
#X connect 27 0 8 0;
#X connect 28 0 24 0;
#X connect 29 0 28 1;
#X connect 31 0 30 1;
